<?xml version="1.0" standalone="no"?>
<!DOCTYPE svg PUBLIC "-//W3C//DTD SVG 20010904//EN"
 "http://www.w3.org/TR/2001/REC-SVG-20010904/DTD/svg10.dtd">
<svg version="1.0" xmlns="http://www.w3.org/2000/svg"
 width="512.000000pt" height="512.000000pt" viewBox="0 0 512.000000 512.000000"
 preserveAspectRatio="xMidYMid meet">
<metadata>
Created by potrace 1.14, written by Peter Selinger 2001-2017
</metadata>
<g transform="translate(0.000000,512.000000) scale(0.100000,-0.100000)"
fill="#000000" stroke="none">
<path d="M2008 5100 c-57 -31 -83 -75 -83 -140 1 -62 19 -97 69 -133 29 -21
44 -22 219 -25 l187 -4 0 -164 0 -164 -32 -1 c-18 -1 -42 -3 -53 -4 -32 -3
-140 -18 -145 -20 -3 -1 -23 -5 -45 -9 -316 -61 -665 -217 -919 -413 l-69 -53
-96 93 c-107 104 -149 125 -241 122 -64 -2 -121 -29 -166 -77 -58 -64 -68 -87
-68 -168 -1 -97 17 -129 128 -240 47 -46 86 -89 86 -94 0 -5 -27 -46 -60 -93
-33 -46 -60 -85 -60 -87 0 -2 -17 -33 -38 -67 -129 -214 -248 -555 -277 -794
-3 -27 -9 -79 -14 -115 -8 -67 -7 -429 2 -465 3 -11 8 -42 11 -70 28 -211 118
-495 215 -682 142 -271 286 -458 525 -678 41 -38 165 -132 242 -183 283 -188
587 -301 964 -357 89 -13 424 -13 530 0 508 64 955 280 1313 633 112 110 307
351 307 380 0 6 3 12 8 14 13 5 87 137 135 238 103 219 163 423 203 690 10 67
12 420 3 487 -5 32 -11 81 -14 108 -4 28 -10 66 -15 85 -5 19 -11 51 -14 70
-34 210 -170 529 -322 758 l-76 113 105 108 c92 94 108 116 122 163 20 69 17
110 -11 173 -45 101 -119 150 -229 149 -92 0 -117 -14 -237 -132 l-97 -94 -33
23 c-18 13 -35 26 -38 30 -3 4 -62 45 -132 92 -239 160 -534 282 -803 333 -22
4 -42 8 -45 9 -3 1 -32 5 -65 9 -33 4 -69 9 -80 11 -11 2 -35 4 -52 4 l-33 1
0 165 0 165 175 0 c198 0 226 7 269 63 55 72 42 169 -30 223 l-37 29 -526 2
c-505 2 -527 2 -563 -17z"/>
</g>
</svg>
